<svg id="visual" viewBox="0 0 900 450" width="900" height="450" xmlns="http://www.w3.org/2000/svg" xmlns:xlink="http://www.w3.org/1999/xlink" version="1.1"><g stroke-width="1" stroke-linejoin="bevel"><path d="M388 274L326 239L383 327Z" fill="#061822" stroke="#061822"></path><path d="M392 142L284 200L326 239Z" fill="#061822" stroke="#061822"></path><path d="M326 239L276 388L383 327Z" fill="#06161e" stroke="#06161e"></path><path d="M194 303L276 388L326 239Z" fill="#02202f" stroke="#02202f"></path><path d="M284 200L194 303L326 239Z" fill="#01080c" stroke="#01080c"></path><path d="M166 450L318 450L276 388Z" fill="#05131a" stroke="#05131a"></path><path d="M276 388L318 450L383 327Z" fill="#01080c" stroke="#01080c"></path><path d="M388 274L392 142L326 239Z" fill="#06161e" stroke="#06161e"></path><path d="M318 450L394 450L383 327Z" fill="#01080c" stroke="#01080c"></path><path d="M530 361L535 255L388 274Z" fill="#041016" stroke="#041016"></path><path d="M539 197L407 122L392 142Z" fill="#061b26" stroke="#061b26"></path><path d="M194 303L170 370L276 388Z" fill="#06161e" stroke="#06161e"></path><path d="M392 142L280 118L284 200Z" fill="#05131a" stroke="#05131a"></path><path d="M284 200L189 179L194 303Z" fill="#061b26" stroke="#061b26"></path><path d="M280 118L189 179L284 200Z" fill="#000305" stroke="#000305"></path><path d="M194 303L74 345L170 370Z" fill="#061b26" stroke="#061b26"></path><path d="M539 197L392 142L388 274Z" fill="#01080c" stroke="#01080c"></path><path d="M392 142L407 122L280 118Z" fill="#02202f" stroke="#02202f"></path><path d="M530 361L388 274L383 327Z" fill="#041016" stroke="#041016"></path><path d="M394 450L530 361L383 327Z" fill="#061822" stroke="#061822"></path><path d="M189 179L127 240L194 303Z" fill="#061b26" stroke="#061b26"></path><path d="M280 118L196 118L189 179Z" fill="#061822" stroke="#061822"></path><path d="M189 179L98 211L127 240Z" fill="#05131a" stroke="#05131a"></path><path d="M592 259L539 197L535 255Z" fill="#02202f" stroke="#02202f"></path><path d="M535 255L539 197L388 274Z" fill="#000305" stroke="#000305"></path><path d="M119 450L166 450L170 370Z" fill="#06161e" stroke="#06161e"></path><path d="M170 370L166 450L276 388Z" fill="#06161e" stroke="#06161e"></path><path d="M394 450L514 450L530 361Z" fill="#041016" stroke="#041016"></path><path d="M89 96L98 211L189 179Z" fill="#06161e" stroke="#06161e"></path><path d="M74 345L119 450L170 370Z" fill="#05131a" stroke="#05131a"></path><path d="M530 361L592 259L535 255Z" fill="#01080c" stroke="#01080c"></path><path d="M594 399L592 259L530 361Z" fill="#020c12" stroke="#020c12"></path><path d="M74 345L194 303L127 240Z" fill="#020c12" stroke="#020c12"></path><path d="M0 271L74 345L127 240Z" fill="#05131a" stroke="#05131a"></path><path d="M571 109L533 102L539 197Z" fill="#000305" stroke="#000305"></path><path d="M539 197L533 102L407 122Z" fill="#061822" stroke="#061822"></path><path d="M407 122L372 0L280 118Z" fill="#020c12" stroke="#020c12"></path><path d="M280 118L210 0L196 118Z" fill="#05131a" stroke="#05131a"></path><path d="M514 450L566 450L530 361Z" fill="#041d2a" stroke="#041d2a"></path><path d="M566 450L594 399L530 361Z" fill="#01080c" stroke="#01080c"></path><path d="M472 0L372 0L407 122Z" fill="#05131a" stroke="#05131a"></path><path d="M372 0L288 0L280 118Z" fill="#06161e" stroke="#06161e"></path><path d="M196 118L89 96L189 179Z" fill="#020c12" stroke="#020c12"></path><path d="M635 216L571 109L539 197Z" fill="#01080c" stroke="#01080c"></path><path d="M533 102L472 0L407 122Z" fill="#02202f" stroke="#02202f"></path><path d="M727 249L635 216L592 259Z" fill="#000305" stroke="#000305"></path><path d="M592 259L635 216L539 197Z" fill="#06161e" stroke="#06161e"></path><path d="M105 0L89 96L196 118Z" fill="#000305" stroke="#000305"></path><path d="M98 211L0 271L127 240Z" fill="#002233" stroke="#002233"></path><path d="M288 0L210 0L280 118Z" fill="#061b26" stroke="#061b26"></path><path d="M604 0L472 0L533 102Z" fill="#061822" stroke="#061822"></path><path d="M0 193L0 271L98 211Z" fill="#05131a" stroke="#05131a"></path><path d="M74 345L0 450L119 450Z" fill="#041d2a" stroke="#041d2a"></path><path d="M0 271L0 330L74 345Z" fill="#061822" stroke="#061822"></path><path d="M0 124L0 193L98 211Z" fill="#01080c" stroke="#01080c"></path><path d="M0 330L0 450L74 345Z" fill="#02202f" stroke="#02202f"></path><path d="M210 0L105 0L196 118Z" fill="#002233" stroke="#002233"></path><path d="M89 96L0 124L98 211Z" fill="#041d2a" stroke="#041d2a"></path><path d="M0 0L0 124L89 96Z" fill="#061b26" stroke="#061b26"></path><path d="M696 450L711 373L594 399Z" fill="#002233" stroke="#002233"></path><path d="M594 399L711 373L592 259Z" fill="#061822" stroke="#061822"></path><path d="M566 450L696 450L594 399Z" fill="#02202f" stroke="#02202f"></path><path d="M731 64L604 0L571 109Z" fill="#06161e" stroke="#06161e"></path><path d="M571 109L604 0L533 102Z" fill="#000305" stroke="#000305"></path><path d="M711 373L727 249L592 259Z" fill="#02202f" stroke="#02202f"></path><path d="M709 148L571 109L635 216Z" fill="#020c12" stroke="#020c12"></path><path d="M727 249L709 148L635 216Z" fill="#041016" stroke="#041016"></path><path d="M105 0L0 0L89 96Z" fill="#041d2a" stroke="#041d2a"></path><path d="M829 307L782 194L727 249Z" fill="#020c12" stroke="#020c12"></path><path d="M727 249L782 194L709 148Z" fill="#020c12" stroke="#020c12"></path><path d="M709 148L731 64L571 109Z" fill="#06161e" stroke="#06161e"></path><path d="M829 307L727 249L711 373Z" fill="#05131a" stroke="#05131a"></path><path d="M782 194L731 64L709 148Z" fill="#05131a" stroke="#05131a"></path><path d="M764 0L717 0L731 64Z" fill="#041d2a" stroke="#041d2a"></path><path d="M731 64L717 0L604 0Z" fill="#041016" stroke="#041016"></path><path d="M839 366L829 307L711 373Z" fill="#041016" stroke="#041016"></path><path d="M824 57L764 0L731 64Z" fill="#061822" stroke="#061822"></path><path d="M830 450L839 366L711 373Z" fill="#02202f" stroke="#02202f"></path><path d="M696 450L830 450L711 373Z" fill="#061822" stroke="#061822"></path><path d="M824 57L731 64L782 194Z" fill="#000305" stroke="#000305"></path><path d="M900 116L824 57L782 194Z" fill="#020c12" stroke="#020c12"></path><path d="M900 273L782 194L829 307Z" fill="#05131a" stroke="#05131a"></path><path d="M900 366L900 273L829 307Z" fill="#041016" stroke="#041016"></path><path d="M900 366L829 307L839 366Z" fill="#061b26" stroke="#061b26"></path><path d="M900 450L900 366L839 366Z" fill="#061b26" stroke="#061b26"></path><path d="M900 273L900 194L782 194Z" fill="#01080c" stroke="#01080c"></path><path d="M830 450L900 450L839 366Z" fill="#002233" stroke="#002233"></path><path d="M900 194L900 116L782 194Z" fill="#002233" stroke="#002233"></path><path d="M824 57L900 0L764 0Z" fill="#041016" stroke="#041016"></path><path d="M900 116L900 0L824 57Z" fill="#020c12" stroke="#020c12"></path></g></svg>