<svg id="visual" viewBox="0 0 960 540" width="960" height="540" xmlns="http://www.w3.org/2000/svg" xmlns:xlink="http://www.w3.org/1999/xlink" version="1.1"><rect x="0" y="0" width="960" height="540" fill="#eaeef3"></rect><path d="M0 247L22.8 235.7C45.7 224.3 91.3 201.7 137 199.8C182.7 198 228.3 217 274 219C319.7 221 365.3 206 411.2 205.7C457 205.3 503 219.7 548.8 216.5C594.7 213.3 640.3 192.7 686 183.3C731.7 174 777.3 176 823 178C868.7 180 914.3 182 937.2 183L960 184L960 541L937.2 541C914.3 541 868.7 541 823 541C777.3 541 731.7 541 686 541C640.3 541 594.7 541 548.8 541C503 541 457 541 411.2 541C365.3 541 319.7 541 274 541C228.3 541 182.7 541 137 541C91.3 541 45.7 541 22.8 541L0 541Z" fill="#b0d5f8"></path><path d="M0 269L22.8 258C45.7 247 91.3 225 137 212.2C182.7 199.3 228.3 195.7 274 193.3C319.7 191 365.3 190 411.2 193.3C457 196.7 503 204.3 548.8 213.3C594.7 222.3 640.3 232.7 686 249.2C731.7 265.7 777.3 288.3 823 281.8C868.7 275.3 914.3 239.7 937.2 221.8L960 204L960 541L937.2 541C914.3 541 868.7 541 823 541C777.3 541 731.7 541 686 541C640.3 541 594.7 541 548.8 541C503 541 457 541 411.2 541C365.3 541 319.7 541 274 541C228.3 541 182.7 541 137 541C91.3 541 45.7 541 22.8 541L0 541Z" fill="#84acdc"></path><path d="M0 289L22.8 299.3C45.7 309.7 91.3 330.3 137 323C182.7 315.7 228.3 280.3 274 269.2C319.7 258 365.3 271 411.2 272.2C457 273.3 503 262.7 548.8 262.8C594.7 263 640.3 274 686 274.2C731.7 274.3 777.3 263.7 823 259.5C868.7 255.3 914.3 257.7 937.2 258.8L960 260L960 541L937.2 541C914.3 541 868.7 541 823 541C777.3 541 731.7 541 686 541C640.3 541 594.7 541 548.8 541C503 541 457 541 411.2 541C365.3 541 319.7 541 274 541C228.3 541 182.7 541 137 541C91.3 541 45.7 541 22.8 541L0 541Z" fill="#5d85c0"></path><path d="M0 397L22.8 387.8C45.7 378.7 91.3 360.3 137 359.3C182.7 358.3 228.3 374.7 274 377C319.7 379.3 365.3 367.7 411.2 368C457 368.3 503 380.7 548.8 376C594.7 371.3 640.3 349.7 686 348.8C731.7 348 777.3 368 823 373.3C868.7 378.7 914.3 369.3 937.2 364.7L960 360L960 541L937.2 541C914.3 541 868.7 541 823 541C777.3 541 731.7 541 686 541C640.3 541 594.7 541 548.8 541C503 541 457 541 411.2 541C365.3 541 319.7 541 274 541C228.3 541 182.7 541 137 541C91.3 541 45.7 541 22.8 541L0 541Z" fill="#3c5ea3"></path><path d="M0 438L22.8 426.5C45.7 415 91.3 392 137 385.5C182.7 379 228.3 389 274 399.2C319.7 409.3 365.3 419.7 411.2 425.3C457 431 503 432 548.8 428C594.7 424 640.3 415 686 414.7C731.7 414.3 777.3 422.7 823 420.2C868.7 417.7 914.3 404.3 937.2 397.7L960 391L960 541L937.2 541C914.3 541 868.7 541 823 541C777.3 541 731.7 541 686 541C640.3 541 594.7 541 548.8 541C503 541 457 541 411.2 541C365.3 541 319.7 541 274 541C228.3 541 182.7 541 137 541C91.3 541 45.7 541 22.8 541L0 541Z" fill="#002233"></path><path d="M0 482L22.8 475.8C45.7 469.7 91.3 457.3 137 449.5C182.7 441.7 228.3 438.3 274 441.7C319.7 445 365.3 455 411.2 464.2C457 473.3 503 481.7 548.8 479C594.7 476.3 640.3 462.7 686 456C731.7 449.3 777.3 449.7 823 447.8C868.7 446 914.3 442 937.2 440L960 438L960 541L937.2 541C914.3 541 868.7 541 823 541C777.3 541 731.7 541 686 541C640.3 541 594.7 541 548.8 541C503 541 457 541 411.2 541C365.3 541 319.7 541 274 541C228.3 541 182.7 541 137 541C91.3 541 45.7 541 22.8 541L0 541Z" fill="#002233"></path></svg>