<svg width="960" height="540" xmlns="http://www.w3.org/2000/svg" version="1.1">

 <g>
  <title>Layer 1</title>
  <rect id="svg_1" fill="#eaeef3" height="540" width="960" y="0" x="0"/>
  <path stroke="null" style="vector-effect: non-scaling-stroke;" transform="translate(978 52.3172) scale(1.04062 1) translate(-978 -52.3172)" id="svg_2" fill="#F1E1E8" d="m18,123l22.8,-11.3c22.9,-11.4 68.5,-34 114.2,-35.9c45.7,-1.8 91.3,17.2 137,19.2c45.7,2 91.3,-13 137.2,-13.3c45.8,-0.4 91.8,14 137.6,10.8c45.9,-3.2 91.5,-23.8 137.2,-33.2c45.7,-9.3 91.3,-7.3 137,-5.3c45.7,2 91.3,4 114.2,5l22.8,1l0,357l-22.8,0c-22.9,0 -68.5,0 -114.2,0c-45.7,0 -91.3,0 -137,0c-45.7,0 -91.3,0 -137.2,0c-45.8,0 -91.8,0 -137.6,0c-45.9,0 -91.5,0 -137.2,0c-45.7,0 -91.3,0 -137,0c-45.7,0 -91.3,0 -114.2,0l-22.8,0l0,-294z"/>
  <path stroke="null" id="svg_3" fill="#F2D2E0" d="m-16,195l23.39375,-11c23.49635,-11 70.28385,-33 117.17395,-45.8c46.8901,-12.9 93.6776,-16.5 140.5677,-18.9c46.8901,-2.3 93.6776,-3.3 140.77291,0c46.99271,3.4 94.19062,11 141.18333,20c47.09531,9 93.88281,19.4 140.77291,35.9c46.8901,16.5 93.6776,39.1 140.5677,32.6c46.8901,-6.5 93.6776,-42.1 117.17395,-60l23.39375,-17.8l0,337l-23.39375,0c-23.49635,0 -70.28385,0 -117.17395,0c-46.8901,0 -93.6776,0 -140.5677,0c-46.8901,0 -93.6776,0 -140.77291,0c-46.99271,0 -94.19062,0 -141.18333,0c-47.09531,0 -93.88281,0 -140.77291,0c-46.8901,0 -93.6776,0 -140.5677,0c-46.8901,0 -93.6776,0 -117.17395,0l-23.39375,0l0,-272z"/>
  <path stroke="null" id="svg_4" fill="#F4B4D0" d="m-10.00003,224l23.1325,10.3c23.23396,10.4 69.49896,31 115.86542,23.7c46.36646,-7.3 92.63146,-42.7 138.99792,-53.8c46.36646,-11.2 92.63146,1.8 139.20084,3c46.46792,1.1 93.13875,-9.5 139.60667,-9.4c46.56938,0.2 92.83438,11.2 139.20084,11.4c46.36646,0.1 92.63146,-10.5 138.99792,-14.7c46.36646,-4.2 92.63146,-1.8 115.86542,-0.7l23.1325,1.2l0,281l-23.1325,0c-23.23396,0 -69.49896,0 -115.86542,0c-46.36646,0 -92.63146,0 -138.99792,0c-46.36646,0 -92.63146,0 -139.20084,0c-46.46792,0 -93.13875,0 -139.60667,0c-46.56938,0 -92.83438,0 -139.20084,0c-46.36646,0 -92.63146,0 -138.99792,0c-46.36646,0 -92.63146,0 -115.86542,0l-23.1325,0l0,-252z"/>
  <path stroke="null" id="svg_5" fill="#F878AF" d="m1,274.75958l23.0375,-9.72647c23.13854,-9.62075 69.21354,-29.07369 115.38958,-30.13092c46.17604,-1.05723 92.25104,16.28127 138.42708,18.71288c46.17604,2.43162 92.25104,-9.83219 138.62916,-9.51503c46.27708,0.31717 92.75625,13.42676 139.03333,8.4578c46.37812,-4.96896 92.45312,-27.80502 138.62916,-28.75652c46.17604,-0.84578 92.25104,20.29872 138.42708,25.90202c46.17604,5.70902 92.25104,-4.2289 115.38958,-9.09214l23.0375,-4.96896l0,191.35774l-23.0375,0c-23.13854,0 -69.21354,0 -115.38958,0c-46.17604,0 -92.25104,0 -138.42708,0c-46.17604,0 -92.25104,0 -138.62916,0c-46.27708,0 -92.75625,0 -139.03333,0c-46.37812,0 -92.45312,0 -138.62916,0c-46.17604,0 -92.25104,0 -138.42708,0c-46.17604,0 -92.25104,0 -115.38958,0l-23.0375,0l0,-152.24042z"/>
  <path stroke="null" id="svg_6" fill="#FC3C8F" d="m0,364.1599l22.8,-14.27341c22.9,-14.27341 68.5,-42.82023 114.2,-50.88781c45.7,-8.06758 91.3,4.34408 137,17.00397c45.7,12.53578 91.3,25.4439 137.2,32.39443c45.8,7.07465 91.8,8.31581 137.6,3.35115c45.9,-4.96466 91.5,-16.13516 137.2,-16.50751c45.7,-0.49647 91.3,9.92933 137,6.82641c45.7,-3.10291 91.3,-19.73454 114.2,-27.92623l22.8,-8.31581l0,186.1749l-22.8,0c-22.9,0 -68.5,0 -114.2,0c-45.7,0 -91.3,0 -137,0c-45.7,0 -91.3,0 -137.2,0c-45.8,0 -91.8,0 -137.6,0c-45.9,0 -91.5,0 -137.2,0c-45.7,0 -91.3,0 -137,0c-45.7,0 -91.3,0 -114.2,0l-22.8,0l0,-127.8401z"/>
  <path stroke="null" id="svg_7" fill="#FF006E" d="m0,439.61165l22.8,-10.65437c22.9,-10.48252 68.5,-31.79126 114.2,-45.19515c45.7,-13.40388 91.3,-19.2466 137,-13.40388c45.7,5.67087 91.3,22.85534 137.2,38.66505c45.8,15.63786 91.8,30.07282 137.6,25.43301c45.9,-4.63981 91.5,-28.01068 137.2,-39.52427c45.7,-11.51359 91.3,-10.82621 137,-14.09126c45.7,-3.0932 91.3,-9.96699 114.2,-13.40388l22.8,-3.43689l0,177l-22.8,0c-22.9,0 -68.5,0 -114.2,0c-45.7,0 -91.3,0 -137,0c-45.7,0 -91.3,0 -137.2,0c-45.8,0 -91.8,0 -137.6,0c-45.9,0 -91.5,0 -137.2,0c-45.7,0 -91.3,0 -137,0c-45.7,0 -91.3,0 -114.2,0l-22.8,0l0,-101.38835z"/>
 </g>
</svg>